<svg id="Layer_1" enable-background="new 0 0 512 512" height="512" viewBox="0 0 512 512" width="512" xmlns="http://www.w3.org/2000/svg"><g clip-rule="evenodd" fill-rule="evenodd"><path d="m482 56h-452c-16.542 0-30 13.458-30 30v340c0 16.542 13.458 30 30 30h452c16.542 0 30-13.458 30-30v-340c0-16.543-13.458-30-30-30zm-452 20h452c5.514 0 9.999 4.486 9.999 10v109.999h-471.999v-110c0-5.513 4.486-9.999 10-9.999zm75.997 139.998v110c0 5.523 4.477 10 10 10h10v100.002h-60.003v-220.002zm40 119.999h10c5.523 0 10-4.477 10-10v-109.999h20.003v109.999c0 5.523 4.477 10 10 10h10v100.003h-60.003zm80.003 0h10c5.523 0 10-4.477 10-10v-109.999h40.002v220.002h-60.002zm80.001-119.999h40.003v109.999c0 5.523 4.478 10 10 10h10v100.003h-60.003zm80.003 119.999h10c5.522 0 10-4.477 10-10v-109.999h40.002v220.002h-60.002zm-366.004 90.003v-210.002h25.994v220.002h-15.994c-5.514 0-10-4.486-10-10zm472 0c0 5.514-4.485 10-9.999 10h-15.994v-220.002h25.993z"/><ellipse cx="80.994" cy="135.999" rx="25" ry="25" transform="matrix(.383 -.924 .924 .383 -75.648 158.783)"/><ellipse cx="431.007" cy="135.999" rx="25" ry="25" transform="matrix(.924 -.383 .383 .924 -19.236 175.292)"/><path d="m145.995 125.998c5.523 0 10-4.477 10-10s-4.477-10-10-10h-.007c-5.523 0-9.997 4.477-9.997 10s4.481 10 10.004 10z"/><path d="m145.995 166c5.523 0 10-4.477 10-10s-4.477-10-10-10h-.007c-5.523 0-9.997 4.477-9.997 10s4.481 10 10.004 10z"/><path d="m185.996 125.998c5.523 0 10-4.477 10-10s-4.477-10-10-10h-.007c-5.523 0-9.997 4.477-9.997 10s4.481 10 10.004 10z"/><path d="m185.996 166c5.523 0 10-4.477 10-10s-4.477-10-10-10h-.007c-5.523 0-9.997 4.477-9.997 10s4.481 10 10.004 10z"/><path d="m225.998 125.998c5.523 0 10-4.477 10-10s-4.477-10-10-10h-.008c-5.523 0-9.996 4.477-9.996 10s4.481 10 10.004 10z"/><path d="m225.998 166c5.523 0 10-4.477 10-10s-4.477-10-10-10h-.008c-5.523 0-9.996 4.477-9.996 10s4.481 10 10.004 10z"/><path d="m265.999 125.998c5.522 0 10-4.477 10-10s-4.478-10-10-10h-.007c-5.522 0-9.997 4.477-9.997 10s4.481 10 10.004 10z"/><path d="m265.999 166c5.522 0 10-4.477 10-10s-4.478-10-10-10h-.007c-5.522 0-9.997 4.477-9.997 10s4.481 10 10.004 10z"/><ellipse cx="331.005" cy="135.999" rx="25" ry="25" transform="matrix(.383 -.924 .924 .383 78.688 389.763)"/></g></svg>